<?xml version="1.0" encoding="utf-8"?>
<!-- Generator: Adobe Illustrator 19.0.0, SVG Export Plug-In . SVG Version: 6.00 Build 0)  -->
<svg version="1.1" id="Capa_1" xmlns="http://www.w3.org/2000/svg" xmlns:xlink="http://www.w3.org/1999/xlink" x="0px" y="0px"
	 viewBox="0 0 526.8 129.1" style="enable-background:new 0 0 526.8 129.1;" xml:space="preserve">
<style type="text/css">
	.st0{clip-path:url(#SVGID_2_);fill:#F29332;}
	.st1{clip-path:url(#SVGID_2_);fill:#FACC1F;}
	.st2{clip-path:url(#SVGID_4_);fill:url(#SVGID_5_);}
	.st3{clip-path:url(#SVGID_7_);fill:url(#SVGID_8_);}
</style>
<g>
	<defs>
		<rect id="SVGID_1_" width="526.8" height="129.1"/>
	</defs>
	<clipPath id="SVGID_2_">
		<use xlink:href="#SVGID_1_"  style="overflow:visible;"/>
	</clipPath>
	<path class="st0" d="M439.8,28.8h-28.6c-11.4,0-20.7,9.3-20.7,20.7c0,3.1,2.5,5.6,5.6,5.6c3.1,0,5.6-2.5,5.6-5.6
		c0-5.2,4.2-9.5,9.5-9.5h28.6c3.1,0,5.6-2.5,5.6-5.6C445.4,31.3,442.9,28.8,439.8,28.8"/>
	<path class="st0" d="M521.2,89.1h-33.9V34.4c0-3.1-2.5-5.6-5.6-5.6c-3.1,0-5.6,2.5-5.6,5.6v60.3c0,3.1,2.5,5.6,5.6,5.6h39.6
		c3.1,0,5.6-2.5,5.6-5.6S524.3,89.1,521.2,89.1"/>
	<path class="st0" d="M261.3,31.9c-1-1.9-2.9-3.1-5-3.1c-0.9,0-1.7,0.2-2.5,0.6c-1.3,0.7-2.3,1.8-2.8,3.2c-0.5,1.4-0.4,2.9,0.3,4.3
		L269.7,74h-35.7c-2.1,0-4.1,1.2-5,3.1l-7.2,14.7c-0.7,1.3-0.8,2.9-0.3,4.3c0.5,1.4,1.5,2.6,2.8,3.2c0.8,0.4,1.6,0.6,2.5,0.6
		c2.2,0,4.1-1.2,5-3.1l5.7-11.5h37.8l5.9,11.9c1,1.9,2.9,3.1,5,3.1c0.9,0,1.7-0.2,2.5-0.6c1.3-0.7,2.3-1.8,2.8-3.2
		c0.5-1.4,0.4-2.9-0.3-4.3L261.3,31.9z"/>
	<path class="st0" d="M411.2,70.2h28.6c3.1,0,5.6-2.5,5.6-5.6c0-3.1-2.5-5.6-5.6-5.6h-28.6c-11.4,0-20.7,9.3-20.7,20.7
		c0,11.4,9.3,20.7,20.7,20.7h28.6c3.1,0,5.6-2.5,5.6-5.6c0-3.1-2.5-5.6-5.6-5.6h-28.6c-5.2,0-9.5-4.2-9.5-9.5
		C401.7,74.4,406,70.2,411.2,70.2"/>
	<path class="st0" d="M182.5,28.8h-31.9c-3.1,0-5.6,2.5-5.6,5.6c0,3.1,2.5,5.6,5.6,5.6h31.9c5.2,0,9.5,4.2,9.5,9.5
		c0,5.2-4.2,9.5-9.5,9.5h-31.9c-3.1,0-5.6,2.5-5.6,5.6c0,3.1,2.5,5.6,5.6,5.6h31.9c5.2,0,9.5,4.2,9.5,9.5c0,5.2-4.2,9.5-9.5,9.5
		h-31.9c-3.1,0-5.6,2.5-5.6,5.6c0,3.1,2.5,5.6,5.6,5.6h31.9c11.4,0,20.7-9.3,20.7-20.7c0-5.8-2.4-11.2-6.6-15.1
		c4.2-3.9,6.6-9.3,6.6-15.1C203.1,38.1,193.9,28.8,182.5,28.8"/>
	<path class="st0" d="M344,28.8h-28.6c-3.1,0-5.6,2.5-5.6,5.6c0,3.1,2.5,5.6,5.6,5.6H344c5.2,0,9.5,4.2,9.5,9.5
		c0,5.2-4.2,9.5-9.5,9.5h-28.6c-3.1,0-5.6,2.5-5.6,5.6c0,3.1,2.5,5.6,5.6,5.6H344c5.2,0,9.5,4.2,9.5,9.5c0,5.2-4.2,9.5-9.5,9.5
		h-28.6c-3.1,0-5.6,2.5-5.6,5.6c0,3.1,2.5,5.6,5.6,5.6H344c11.4,0,20.7-9.3,20.7-20.7c0-5.8-2.4-11.2-6.6-15.1
		c4.2-3.9,6.6-9.3,6.6-15.1C364.6,38.1,355.4,28.8,344,28.8"/>
	<path class="st1" d="M97.8,37.7c-1-5.6-4.8-10.6-10.6-12.7L22.3,1C13.7-2.1,4.2,2.2,1,10.8c-3.2,8.6,1.2,18.1,9.8,21.2l64.9,24
		c8.6,3.2,18.1-1.2,21.2-9.8C98,43.4,98.3,40.5,97.8,37.7"/>
	<path class="st1" d="M97.8,85.8c-1-5.6-4.8-10.6-10.6-12.7l-64.9-24C13.7,46,4.2,50.4,1,58.9c-3.2,8.6,1.2,18.1,9.8,21.2l64.9,24
		c8.6,3.2,18.1-1.2,21.2-9.8C98,91.5,98.3,88.6,97.8,85.8"/>
</g>
<g>
	<defs>
		<path id="SVGID_3_" d="M75.8,25.2l-64.9,24C2.2,52.3-2.1,61.9,1,70.4c3.2,8.6,12.7,13,21.2,9.8l64.9-24c5.7-2.1,9.6-7.1,10.6-12.7
			c0.5-2.8,0.3-5.7-0.8-8.5c-2.5-6.7-8.8-10.8-15.5-10.8C79.6,24.2,77.6,24.5,75.8,25.2"/>
	</defs>
	<clipPath id="SVGID_4_">
		<use xlink:href="#SVGID_3_"  style="overflow:visible;"/>
	</clipPath>
	
		<linearGradient id="SVGID_5_" gradientUnits="userSpaceOnUse" x1="6.366463e-12" y1="129.085" x2="1" y2="129.085" gradientTransform="matrix(-91.6837 -15.7362 -15.7362 91.6837 2125.9553 -11773.2285)">
		<stop  offset="0" style="stop-color:#D21518"/>
		<stop  offset="7.766158e-03" style="stop-color:#D21C18"/>
		<stop  offset="8.395554e-02" style="stop-color:#D94118"/>
		<stop  offset="0.1678" style="stop-color:#E05D17"/>
		<stop  offset="0.2608" style="stop-color:#E67314"/>
		<stop  offset="0.3661" style="stop-color:#EB8211"/>
		<stop  offset="0.4908" style="stop-color:#EF8D0E"/>
		<stop  offset="0.6538" style="stop-color:#F1940C"/>
		<stop  offset="0.9995" style="stop-color:#F1960B"/>
		<stop  offset="1" style="stop-color:#F1960B"/>
	</linearGradient>
	<polygon class="st2" points="95.4,100.1 -12,81.7 0.7,7.4 108.1,25.9 	"/>
</g>
<g>
	<defs>
		<path id="SVGID_6_" d="M75.8,73L10.8,97c-8.6,3.2-12.9,12.7-9.8,21.2c2.5,6.7,8.7,10.8,15.5,10.8h0.1c1.9,0,3.8-0.3,5.7-1l64.9-24
			C93,102,96.8,97,97.8,91.3c0.5-2.8,0.3-5.7-0.8-8.5C94.5,76.2,88.2,72,81.5,72C79.6,72,77.6,72.3,75.8,73"/>
	</defs>
	<clipPath id="SVGID_7_">
		<use xlink:href="#SVGID_6_"  style="overflow:visible;"/>
	</clipPath>
	
		<linearGradient id="SVGID_8_" gradientUnits="userSpaceOnUse" x1="5.456968e-12" y1="129.0737" x2="1" y2="129.0737" gradientTransform="matrix(-91.6837 -15.7362 -15.7362 91.6837 2125.9553 -11725.3848)">
		<stop  offset="0" style="stop-color:#D21518"/>
		<stop  offset="7.766158e-03" style="stop-color:#D21C18"/>
		<stop  offset="8.395554e-02" style="stop-color:#D94118"/>
		<stop  offset="0.1678" style="stop-color:#E05D17"/>
		<stop  offset="0.2608" style="stop-color:#E67314"/>
		<stop  offset="0.3661" style="stop-color:#EB8211"/>
		<stop  offset="0.4908" style="stop-color:#EF8D0E"/>
		<stop  offset="0.6538" style="stop-color:#F1940C"/>
		<stop  offset="0.9995" style="stop-color:#F1960B"/>
		<stop  offset="1" style="stop-color:#F1960B"/>
	</linearGradient>
	<polygon class="st3" points="95.4,145.8 -11.6,127.4 0.7,55.3 107.8,73.7 	"/>
</g>
</svg>
